<svg xmlns="http://www.w3.org/2000/svg" viewBox="0 0 260 200">
  <!-- 天花板 -->
  <line x1="20" y1="25" x2="240" y2="25" stroke="#333" stroke-width="2"/>
  <line x1="35" y1="25" x2="30" y2="15" stroke="#333" stroke-width="1"/>
  <line x1="65" y1="25" x2="60" y2="15" stroke="#333" stroke-width="1"/>
  <line x1="165" y1="25" x2="160" y2="15" stroke="#333" stroke-width="1"/>
  <line x1="195" y1="25" x2="190" y2="15" stroke="#333" stroke-width="1"/>
  <line x1="225" y1="25" x2="220" y2="15" stroke="#333" stroke-width="1"/>
  
  <!-- 左繩（陡）-->
  <line x1="50" y1="25" x2="120" y2="110" stroke="#333" stroke-width="2"/>
  
  <!-- 右繩（緩）-->
  <line x1="220" y1="25" x2="120" y2="110" stroke="#333" stroke-width="2"/>
  
  <!-- 物體 -->
  <circle cx="120" cy="125" r="18" fill="#e8e8e8" stroke="#333" stroke-width="2"/>
  
  <!-- 左張力 Tₐ -->
  <line x1="108" y1="105" x2="68" y2="55" stroke="#333" stroke-width="2"/>
  <polygon points="60,48 70,50 68,60" fill="#333"/>
  <text x="45" y="50" font-family="Georgia, serif" font-size="13">Tₐ</text>
  
  <!-- 右張力 Tᵦ -->
  <line x1="135" y1="112" x2="190" y2="55" stroke="#333" stroke-width="2"/>
  <polygon points="198,50 188,50 190,60" fill="#333"/>
  <text x="200" y="50" font-family="Georgia, serif" font-size="13">Tᵦ</text>
  
  <!-- 重力 W -->
  <line x1="120" y1="148" x2="120" y2="180" stroke="#333" stroke-width="2"/>
  <polygon points="120,190 115,180 125,180" fill="#333"/>
  <text x="128" y="185" font-family="Georgia, serif" font-size="14" font-style="italic">W</text>
  
  <!-- 水平參考線 -->
  <line x1="50" y1="110" x2="190" y2="110" stroke="#999" stroke-width="1" stroke-dasharray="3,3"/>
  
  <!-- 角度 α -->
  <path d="M 90,110 A 18,18 0 0,0 82,95" fill="none" stroke="#333" stroke-width="1"/>
  <text x="70" y="100" font-family="Georgia, serif" font-size="12" font-style="italic">α</text>
  
  <!-- 角度 β -->
  <path d="M 150,110 A 18,18 0 0,1 162,98" fill="none" stroke="#333" stroke-width="1"/>
  <text x="165" y="103" font-family="Georgia, serif" font-size="12" font-style="italic">β</text>
</svg>
