<svg xmlns="http://www.w3.org/2000/svg" viewBox="0 0 300 220">
  <!-- 斜面 -->
  <polygon points="30,190 270,190 270,50" fill="#f0f0f0" stroke="#333" stroke-width="2"/>
  
  <!-- 角度 θ -->
  <path d="M 60,190 A 30,30 0 0,0 70,168" fill="none" stroke="#333" stroke-width="1.5"/>
  <text x="75" y="180" font-family="Georgia, serif" font-size="14" font-style="italic">θ</text>
  
  <!-- 物體 -->
  <rect x="130" y="100" width="40" height="40" fill="#e8e8e8" stroke="#333" stroke-width="2" transform="rotate(-30 150 120)"/>
  
  <!-- 重力 W（垂直向下）-->
  <line x1="150" y1="120" x2="150" y2="185" stroke="#333" stroke-width="2"/>
  <polygon points="150,195 145,185 155,185" fill="#333"/>
  <text x="158" y="192" font-family="Georgia, serif" font-size="14" font-style="italic">W</text>
  
  <!-- 正向力 N（垂直斜面向外）-->
  <line x1="150" y1="108" x2="118" y2="53" stroke="#333" stroke-width="2"/>
  <polygon points="113,45 116,56 126,51" fill="#333"/>
  <text x="98" y="50" font-family="Georgia, serif" font-size="14" font-style="italic">N</text>
  
  <!-- 摩擦力 f（沿斜面向上 = 往右上）-->
  <line x1="162" y1="108" x2="210" y2="80" stroke="#333" stroke-width="2"/>
  <polygon points="218,75 208,75 210,85" fill="#333"/>
  <text x="222" y="82" font-family="Georgia, serif" font-size="14" font-style="italic">f</text>
</svg>
