<svg xmlns="http://www.w3.org/2000/svg" viewBox="0 0 260 230">
  <!-- 牆 -->
  <line x1="210" y1="20" x2="210" y2="195" stroke="#333" stroke-width="2"/>
  <line x1="210" y1="35" x2="220" y2="30" stroke="#333" stroke-width="1"/>
  <line x1="210" y1="60" x2="220" y2="55" stroke="#333" stroke-width="1"/>
  <line x1="210" y1="85" x2="220" y2="80" stroke="#333" stroke-width="1"/>
  <line x1="210" y1="110" x2="220" y2="105" stroke="#333" stroke-width="1"/>
  <line x1="210" y1="135" x2="220" y2="130" stroke="#333" stroke-width="1"/>
  <line x1="210" y1="160" x2="220" y2="155" stroke="#333" stroke-width="1"/>
  <line x1="210" y1="185" x2="220" y2="180" stroke="#333" stroke-width="1"/>
  
  <!-- 地面 -->
  <line x1="20" y1="195" x2="230" y2="195" stroke="#333" stroke-width="2"/>
  <line x1="40" y1="195" x2="35" y2="205" stroke="#333" stroke-width="1"/>
  <line x1="70" y1="195" x2="65" y2="205" stroke="#333" stroke-width="1"/>
  <line x1="100" y1="195" x2="95" y2="205" stroke="#333" stroke-width="1"/>
  <line x1="130" y1="195" x2="125" y2="205" stroke="#333" stroke-width="1"/>
  <line x1="160" y1="195" x2="155" y2="205" stroke="#333" stroke-width="1"/>
  <line x1="190" y1="195" x2="185" y2="205" stroke="#333" stroke-width="1"/>
  
  <!-- 梯子 -->
  <line x1="55" y1="195" x2="210" y2="55" stroke="#333" stroke-width="4"/>
  
  <!-- 角度 θ -->
  <path d="M 90,195 A 35,35 0 0,0 78,168" fill="none" stroke="#333" stroke-width="1.5"/>
  <text x="92" y="180" font-family="Georgia, serif" font-size="13" font-style="italic">θ</text>
  
  <!-- 質心 -->
  <circle cx="132" cy="125" r="3" fill="#333"/>
  
  <!-- 重力 W -->
  <line x1="132" y1="130" x2="132" y2="175" stroke="#333" stroke-width="2"/>
  <polygon points="132,185 127,175 137,175" fill="#333"/>
  <text x="140" y="175" font-family="Georgia, serif" font-size="14" font-style="italic">W</text>
  
  <!-- 地面正向力 N₁ -->
  <line x1="55" y1="190" x2="55" y2="145" stroke="#333" stroke-width="2"/>
  <polygon points="55,135 50,145 60,145" fill="#333"/>
  <text x="35" y="155" font-family="Georgia, serif" font-size="13">N₁</text>
  
  <!-- 摩擦力 f -->
  <line x1="60" y1="195" x2="105" y2="195" stroke="#333" stroke-width="2"/>
  <polygon points="115,195 105,190 105,200" fill="#333"/>
  <text x="80" y="218" font-family="Georgia, serif" font-size="14" font-style="italic">f</text>
  
  <!-- 牆正向力 N₂ -->
  <line x1="205" y1="55" x2="160" y2="55" stroke="#333" stroke-width="2"/>
  <polygon points="150,55 160,50 160,60" fill="#333"/>
  <text x="165" y="45" font-family="Georgia, serif" font-size="13">N₂</text>
</svg>
