<svg xmlns="http://www.w3.org/2000/svg" viewBox="0 0 280 250">
  <!-- 牆 -->
  <line x1="230" y1="20" x2="230" y2="210" stroke="#333" stroke-width="2"/>
  <line x1="230" y1="30" x2="240" y2="25" stroke="#333" stroke-width="1"/>
  <line x1="230" y1="50" x2="240" y2="45" stroke="#333" stroke-width="1"/>
  <line x1="230" y1="70" x2="240" y2="65" stroke="#333" stroke-width="1"/>
  <line x1="230" y1="90" x2="240" y2="85" stroke="#333" stroke-width="1"/>
  <line x1="230" y1="110" x2="240" y2="105" stroke="#333" stroke-width="1"/>
  <line x1="230" y1="130" x2="240" y2="125" stroke="#333" stroke-width="1"/>
  <line x1="230" y1="150" x2="240" y2="145" stroke="#333" stroke-width="1"/>
  <line x1="230" y1="170" x2="240" y2="165" stroke="#333" stroke-width="1"/>
  <line x1="230" y1="190" x2="240" y2="185" stroke="#333" stroke-width="1"/>
  
  <!-- 地面 -->
  <line x1="20" y1="210" x2="250" y2="210" stroke="#333" stroke-width="2"/>
  <line x1="40" y1="210" x2="35" y2="220" stroke="#333" stroke-width="1"/>
  <line x1="60" y1="210" x2="55" y2="220" stroke="#333" stroke-width="1"/>
  <line x1="80" y1="210" x2="75" y2="220" stroke="#333" stroke-width="1"/>
  <line x1="100" y1="210" x2="95" y2="220" stroke="#333" stroke-width="1"/>
  <line x1="120" y1="210" x2="115" y2="220" stroke="#333" stroke-width="1"/>
  <line x1="140" y1="210" x2="135" y2="220" stroke="#333" stroke-width="1"/>
  <line x1="160" y1="210" x2="155" y2="220" stroke="#333" stroke-width="1"/>
  <line x1="180" y1="210" x2="175" y2="220" stroke="#333" stroke-width="1"/>
  <line x1="200" y1="210" x2="195" y2="220" stroke="#333" stroke-width="1"/>
  
  <!-- 梯子 -->
  <line x1="60" y1="210" x2="230" y2="60" stroke="#333" stroke-width="4"/>
  
  <!-- 角度 θ -->
  <path d="M 95,210 A 35,35 0 0,0 85,185" fill="none" stroke="#333" stroke-width="1"/>
  <text x="95" y="195" font-family="serif" font-size="12" font-style="italic">θ</text>
  
  <!-- 質心點 -->
  <circle cx="145" cy="135" r="4" fill="#333"/>
  
  <!-- 重力 W（從質心向下） -->
  <line x1="145" y1="140" x2="145" y2="195" stroke="#333" stroke-width="2" marker-end="url(#arrow)"/>
  <text x="152" y="185" font-family="serif" font-size="14" font-style="italic">W</text>
  
  <!-- 地面正向力 N₁（向上） -->
  <line x1="60" y1="205" x2="60" y2="155" stroke="#333" stroke-width="2" marker-end="url(#arrow)"/>
  <text x="45" y="165" font-family="serif" font-size="13" font-style="italic">N₁</text>
  
  <!-- 地面摩擦力 f（向右） -->
  <line x1="65" y1="210" x2="115" y2="210" stroke="#333" stroke-width="2" marker-end="url(#arrow)"/>
  <text x="85" y="230" font-family="serif" font-size="14" font-style="italic">f</text>
  
  <!-- 牆的正向力 N₂（向左） -->
  <line x1="225" y1="60" x2="175" y2="60" stroke="#333" stroke-width="2" marker-end="url(#arrow)"/>
  <text x="185" y="50" font-family="serif" font-size="13" font-style="italic">N₂</text>
  
  <!-- 箭頭定義 -->
  <defs>
    <marker id="arrow" markerWidth="10" markerHeight="10" refX="9" refY="3" orient="auto" markerUnits="strokeWidth">
      <path d="M0,0 L0,6 L9,3 z" fill="#333"/>
    </marker>
  </defs>
</svg>
